<?xml version="1.0" standalone="no"?>
<!-- Generator: SVG Circus (http://svgcircus.com) -->
<!DOCTYPE svg PUBLIC "-//W3C//DTD SVG 1.1//EN" "http://www.w3.org/Graphics/SVG/1.1/DTD/svg11.dtd">
<svg id="SVG-Circus-76005f83-bf23-8f05-5f00-57c3dac1b39c" version="1.1" xmlns="http://www.w3.org/2000/svg" xmlns:xlink="http://www.w3.org/1999/xlink"
 viewBox="0 0 100 100" preserveAspectRatio="xMidYMid meet">
 
 <svg x="-25">
 <polygon id="actor_3" points="0,4 5,4 5,2 6,2 6,1 5,1 5,0 3,0 3,2 1,2 1,3 0,3 0,4"
 opacity="1" fill="rgba(0,0,0,1)" fill-opacity="1" stroke="rgba(166,3,17,1)" stroke-width="0" stroke-opacity="1" stroke-dasharray=""></polygon>
 </svg>
 
 <svg x="30">
 <polygon id="actor_1" points="0,4 5,4 5,2 6,2 6,1 5,1 5,0 3,0 3,2 1,2 1,3 0,3 0,4"
 opacity="1" fill="rgba(255,255,255,1)" fill-opacity="1" stroke="rgba(3,3,3,1)" stroke-width="0.1" stroke-opacity="1" stroke-dasharray="0.2"></polygon>
 </svg>
 
  <polygon id="actor_2" points="0,4 5,4 5,2 6,2 6,1 5,1 5,0 3,0 3,2 1,2 1,3 0,3 0,4" 
 opacity="1" fill="rgba(0,0,0,1)" fill-opacity="1" stroke="rgba(166,3,17,1)" stroke-width="0" stroke-opacity="1" stroke-dasharray=""></polygon>

   <animate xlink:href="#actor_1"
     attributeName="x"
	 from="00"
	 to="100"
	 dur="1s"
	 begin="0s"
   />
 </svg>